# Blender 3.5.0
# www.blender.org
mtllib playerRightLeg.mtl
o Leg_R
v 0.188352 -0.519809 0.018419
v 0.188352 -0.262845 0.018419
v 0.188352 -0.519809 -0.018419
v 0.188352 -0.262845 -0.018419
v 0.151515 -0.519809 0.018419
v 0.151515 -0.262845 0.018419
v 0.151515 -0.519809 -0.018419
v 0.151515 -0.262845 -0.018419
vn 1.0000 -0.0000 -0.0000
vn -0.0000 -0.0000 -1.0000
vn -1.0000 -0.0000 -0.0000
vn -0.0000 -0.0000 1.0000
vn -0.0000 -1.0000 -0.0000
vn -0.0000 1.0000 -0.0000
vt 0.647467 0.007838
vt 0.647467 0.515599
vt 0.520527 0.388659
vt 0.774408 0.007838
vt 0.774408 0.515599
vt 0.901348 0.388659
vt 0.520527 0.261719
vt 0.647467 0.134778
vt 0.774408 0.134778
vt 0.901348 0.261719
vt 0.647467 0.388659
vt 0.774408 0.388659
vt 0.647467 0.261719
vt 0.774408 0.261719
s 0
usemtl マテリアル
f 3/8/1 2/4/1 1/1/1
f 7/13/2 4/9/2 3/8/2
f 5/11/3 8/14/3 7/13/3
f 1/2/4 6/12/4 5/11/4
f 1/3/5 7/13/5 3/7/5
f 6/12/6 4/10/6 8/14/6
f 3/8/1 4/9/1 2/4/1
f 7/13/2 8/14/2 4/9/2
f 5/11/3 6/12/3 8/14/3
f 1/2/4 2/5/4 6/12/4
f 1/3/5 5/11/5 7/13/5
f 6/12/6 2/6/6 4/10/6
