# Blender v3.5.0 OBJ File: 'TD2.blend'
# www.blender.org
mtllib playerLeftLeg.mtl
o 左足_球
v -0.187695 -0.351152 0.000000
v -0.153109 -0.369638 0.000000
v -0.184088 -0.351152 -0.036617
v -0.150167 -0.369638 -0.029870
v -0.185169 -0.519790 -0.047589
v -0.188775 -0.519790 -0.010972
v -0.151248 -0.519886 -0.040842
v -0.154190 -0.519886 -0.010972
vt 0.016295 0.818716
vt -0.000000 0.819973
vt 0.670928 0.730915
vt 0.680876 0.770881
vt 0.768700 0.788561
vt 0.670927 0.788561
vt 0.071207 0.818716
vt 0.051282 0.838049
vt 0.051282 0.820681
vt 0.672138 0.690822
vt 0.768737 0.710897
vt 0.670927 0.710897
vt 0.016295 0.905928
vt -0.000000 0.907185
vt 0.681510 0.750712
vt 0.768756 0.730915
vt 0.768709 0.750741
vt 0.768055 0.770756
vt 0.071207 0.840008
vt 0.769947 0.690822
vn 0.4709 0.8810 0.0464
vn 0.2270 0.0618 -0.9719
vn -0.0028 -1.0000 -0.0003
vn -0.9951 0.0128 -0.0980
vn 0.9951 -0.0143 0.0980
vn -0.0002 -0.0728 0.9973
vn 0.1948 0.0700 -0.9783
vn -0.0346 -0.0647 0.9973
usemtl マテリアル
s 1
f 2/1/1 4/2/1 1/3/1
f 4/4/2 5/5/2 3/6/2
f 6/7/3 7/8/3 8/9/3
f 3/10/4 6/11/4 1/12/4
f 4/2/5 8/13/5 7/14/5
f 2/15/6 6/16/6 8/17/6
f 3/6/1 1/3/1 4/4/1
f 4/4/7 7/18/7 5/5/7
f 6/7/3 5/19/3 7/8/3
f 3/10/4 5/20/4 6/11/4
f 4/2/5 2/1/5 8/13/5
f 2/15/8 1/3/8 6/16/8
